<svg viewBox="0 0 132 24" xmlns="http://www.w3.org/2000/svg">
<!-- sourced from https://github.com/simple-icons/simple-icons -->
<svg role="img" fill="#4B32C3" x="0" xmlns="http://www.w3.org/2000/svg"><title>ESLint</title><path d="M7.257 9.132L11.816 6.5a.369.369 0 0 1 .368 0l4.559 2.632a.369.369 0 0 1 .184.32v5.263a.37.37 0 0 1-.184.319l-4.559 2.632a.369.369 0 0 1-.368 0l-4.559-2.632a.369.369 0 0 1-.184-.32V9.452a.37.37 0 0 1 .184-.32M23.852 11.53l-5.446-9.475c-.198-.343-.564-.596-.96-.596H6.555c-.396 0-.762.253-.96.596L.149 11.509a1.127 1.127 0 0 0 0 1.117l5.447 9.398c.197.342.563.517.959.517h10.893c.395 0 .76-.17.959-.512l5.446-9.413a1.069 1.069 0 0 0 0-1.086m-4.51 4.556a.4.4 0 0 1-.204.338L12.2 20.426a.395.395 0 0 1-.392 0l-6.943-4.002a.4.4 0 0 1-.205-.338V8.08c0-.14.083-.269.204-.338L11.8 3.74c.12-.07.272-.07.392 0l6.943 4.003a.4.4 0 0 1 .206.338z"/></svg>
<svg role="img" fill="#358EF1" x="28" xmlns="http://www.w3.org/2000/svg"><title>TypeScript</title><path d="M1.125 0C.502 0 0 .502 0 1.125v21.75C0 23.498.502 24 1.125 24h21.75c.623 0 1.125-.502 1.125-1.125V1.125C24 .502 23.498 0 22.875 0zm17.363 9.75c.612 0 1.154.037 1.627.111a6.38 6.38 0 0 1 1.306.34v2.458a3.95 3.95 0 0 0-.643-.361 5.093 5.093 0 0 0-.717-.26 5.453 5.453 0 0 0-1.426-.2c-.3 0-.573.028-.819.086a2.1 2.1 0 0 0-.623.242c-.17.104-.3.229-.393.374a.888.888 0 0 0-.14.49c0 .196.053.373.156.529.104.156.252.304.443.444s.423.276.696.41c.273.135.582.274.926.416.47.197.892.407 1.266.628.374.222.695.473.963.753.268.279.472.598.614.957.142.359.214.776.214 1.253 0 .657-.125 1.21-.373 1.656a3.033 3.033 0 0 1-1.012 1.085 4.38 4.38 0 0 1-1.487.596c-.566.12-1.163.18-1.79.18a9.916 9.916 0 0 1-1.84-.164 5.544 5.544 0 0 1-1.512-.493v-2.63a5.033 5.033 0 0 0 3.237 1.2c.333 0 .624-.03.872-.09.249-.06.456-.144.623-.25.166-.108.29-.234.373-.38a1.023 1.023 0 0 0-.074-1.089 2.12 2.12 0 0 0-.537-.5 5.597 5.597 0 0 0-.807-.444 27.72 27.72 0 0 0-1.007-.436c-.918-.383-1.602-.852-2.053-1.405-.45-.553-.676-1.222-.676-2.005 0-.614.123-1.141.369-1.582.246-.441.58-.804 1.004-1.089a4.494 4.494 0 0 1 1.47-.629 7.536 7.536 0 0 1 1.77-.201zm-15.113.188h9.563v2.166H9.506v9.646H6.789v-9.646H3.375z"/></svg>
<svg role="img" fill="#F7B93E" x="56" xmlns="http://www.w3.org/2000/svg"><title>Prettier</title><path d="M8.571 23.429A.571.571 0 0 1 8 24H2.286a.571.571 0 0 1 0-1.143H8c.316 0 .571.256.571.572zM8 20.57H6.857a.571.571 0 0 0 0 1.143H8a.571.571 0 0 0 0-1.143zm-5.714 1.143H4.57a.571.571 0 0 0 0-1.143H2.286a.571.571 0 0 0 0 1.143zM8 18.286H2.286a.571.571 0 0 0 0 1.143H8a.571.571 0 0 0 0-1.143zM16 16H5.714a.571.571 0 0 0 0 1.143H16A.571.571 0 0 0 16 16zM2.286 17.143h1.143a.571.571 0 0 0 0-1.143H2.286a.571.571 0 0 0 0 1.143zm17.143-3.429H16a.571.571 0 0 0 0 1.143h3.429a.571.571 0 0 0 0-1.143zM9.143 14.857h4.571a.571.571 0 0 0 0-1.143H9.143a.571.571 0 0 0 0 1.143zm-6.857 0h4.571a.571.571 0 0 0 0-1.143H2.286a.571.571 0 0 0 0 1.143zM20.57 11.43H11.43a.571.571 0 0 0 0 1.142h9.142a.571.571 0 0 0 0-1.142zM9.714 12a.571.571 0 0 0-.571-.571H5.714a.571.571 0 0 0 0 1.142h3.429A.571.571 0 0 0 9.714 12zm-7.428.571h1.143a.571.571 0 0 0 0-1.142H2.286a.571.571 0 0 0 0 1.142zm19.428-3.428H16a.571.571 0 0 0 0 1.143h5.714a.571.571 0 0 0 0-1.143zM2.286 10.286H8a.571.571 0 0 0 0-1.143H2.286a.571.571 0 0 0 0 1.143zm13.143-2.857c0 .315.255.571.571.571h5.714a.571.571 0 0 0 0-1.143H16a.571.571 0 0 0-.571.572zm-8.572-.572a.571.571 0 0 0 0 1.143H8a.571.571 0 0 0 0-1.143H6.857zM2.286 8H4.57a.571.571 0 0 0 0-1.143H2.286a.571.571 0 0 0 0 1.143zm16.571-2.857c0 .315.256.571.572.571h1.142a.571.571 0 0 0 0-1.143H19.43a.571.571 0 0 0-.572.572zm-1.143 0a.571.571 0 0 0-.571-.572H12.57a.571.571 0 0 0 0 1.143h4.572a.571.571 0 0 0 .571-.571zm-15.428.571h8a.571.571 0 0 0 0-1.143h-8a.571.571 0 0 0 0 1.143zm5.143-2.857c0 .316.255.572.571.572h11.429a.571.571 0 0 0 0-1.143H8a.571.571 0 0 0-.571.571zm-5.143.572h3.428a.571.571 0 0 0 0-1.143H2.286a.571.571 0 0 0 0 1.143zm0-2.286H16A.571.571 0 0 0 16 0H2.286a.571.571 0 0 0 0 1.143z"/></svg>
<svg role="img" fill="#61DAFB" x="82" xmlns="http://www.w3.org/2000/svg"><title>React</title><path d="M14.23 12.004a2.236 2.236 0 0 1-2.235 2.236 2.236 2.236 0 0 1-2.236-2.236 2.236 2.236 0 0 1 2.235-2.236 2.236 2.236 0 0 1 2.236 2.236zm2.648-10.69c-1.346 0-3.107.96-4.888 2.622-1.78-1.653-3.542-2.602-4.887-2.602-.41 0-.783.093-1.106.278-1.375.793-1.683 3.264-.973 6.365C1.98 8.917 0 10.42 0 12.004c0 1.59 1.99 3.097 5.043 4.03-.704 3.113-.39 5.588.988 6.38.32.187.69.275 1.102.275 1.345 0 3.107-.96 4.888-2.624 1.78 1.654 3.542 2.603 4.887 2.603.41 0 .783-.09 1.106-.275 1.374-.792 1.683-3.263.973-6.365C22.02 15.096 24 13.59 24 12.004c0-1.59-1.99-3.097-5.043-4.032.704-3.11.39-5.587-.988-6.38-.318-.184-.688-.277-1.092-.278zm-.005 1.09v.006c.225 0 .406.044.558.127.666.382.955 1.835.73 3.704-.054.46-.142.945-.25 1.44-.96-.236-2.006-.417-3.107-.534-.66-.905-1.345-1.727-2.035-2.447 1.592-1.48 3.087-2.292 4.105-2.295zm-9.77.02c1.012 0 2.514.808 4.11 2.28-.686.72-1.37 1.537-2.02 2.442-1.107.117-2.154.298-3.113.538-.112-.49-.195-.964-.254-1.42-.23-1.868.054-3.32.714-3.707.19-.09.4-.127.563-.132zm4.882 3.05c.455.468.91.992 1.36 1.564-.44-.02-.89-.034-1.345-.034-.46 0-.915.01-1.36.034.44-.572.895-1.096 1.345-1.565zM12 8.1c.74 0 1.477.034 2.202.093.406.582.802 1.203 1.183 1.86.372.64.71 1.29 1.018 1.946-.308.655-.646 1.31-1.013 1.95-.38.66-.773 1.288-1.18 1.87-.728.063-1.466.098-2.21.098-.74 0-1.477-.035-2.202-.093-.406-.582-.802-1.204-1.183-1.86-.372-.64-.71-1.29-1.018-1.946.303-.657.646-1.313 1.013-1.954.38-.66.773-1.286 1.18-1.868.728-.064 1.466-.098 2.21-.098zm-3.635.254c-.24.377-.48.763-.704 1.16-.225.39-.435.782-.635 1.174-.265-.656-.49-1.31-.676-1.947.64-.15 1.315-.283 2.015-.386zm7.26 0c.695.103 1.365.23 2.006.387-.18.632-.405 1.282-.66 1.933-.2-.39-.41-.783-.64-1.174-.225-.392-.465-.774-.705-1.146zm3.063.675c.484.15.944.317 1.375.498 1.732.74 2.852 1.708 2.852 2.476-.005.768-1.125 1.74-2.857 2.475-.42.18-.88.342-1.355.493-.28-.958-.646-1.956-1.1-2.98.45-1.017.81-2.01 1.085-2.964zm-13.395.004c.278.96.645 1.957 1.1 2.98-.45 1.017-.812 2.01-1.086 2.964-.484-.15-.944-.318-1.37-.5-1.732-.737-2.852-1.706-2.852-2.474 0-.768 1.12-1.742 2.852-2.476.42-.18.88-.342 1.356-.494zm11.678 4.28c.265.657.49 1.312.676 1.948-.64.157-1.316.29-2.016.39.24-.375.48-.762.705-1.158.225-.39.435-.788.636-1.18zm-9.945.02c.2.392.41.783.64 1.175.23.39.465.772.705 1.143-.695-.102-1.365-.23-2.006-.386.18-.63.406-1.282.66-1.933zM17.92 16.32c.112.493.2.968.254 1.423.23 1.868-.054 3.32-.714 3.708-.147.09-.338.128-.563.128-1.012 0-2.514-.807-4.11-2.28.686-.72 1.37-1.536 2.02-2.44 1.107-.118 2.154-.3 3.113-.54zm-11.83.01c.96.234 2.006.415 3.107.532.66.905 1.345 1.727 2.035 2.446-1.595 1.483-3.092 2.295-4.11 2.295-.22-.005-.406-.05-.553-.132-.666-.38-.955-1.834-.73-3.703.054-.46.142-.944.25-1.438zm4.56.64c.44.02.89.034 1.345.034.46 0 .915-.01 1.36-.034-.44.572-.895 1.095-1.345 1.565-.455-.47-.91-.993-1.36-1.565z"/></svg>
<svg role="img" fill="#6E9F18" x="108" xmlns="http://www.w3.org/2000/svg"><title>Vitest</title><path d="M13.74024 1.05293a.49504.49504 0 0 0-.1569.02512.49338.49338 0 0 0-.25056.1876L7.59513 9.56159a.4895.4895 0 0 0-.08373.22327.48846.48846 0 0 0 .03163.23629.4893.4893 0 0 0 .13985.19319.4927.4927 0 0 0 .2149.10481l3.70685.78609-.22947 4.58007a.48834.48834 0 0 0 .08466.30017.49205.49205 0 0 0 .24931.18854c.10157.03398.21174.03444.3135.00064a.49387.49387 0 0 0 .25056-.18761l5.73735-8.29594a.4884.4884 0 0 0 .08404-.22327c.009-.08015-.0016-.16137-.03163-.23629a.48835.48835 0 0 0-.13985-.19319.49318.49318 0 0 0-.2149-.1048l-3.70686-.7861.22947-4.58008a.48802.48802 0 0 0-.08466-.30017.4913.4913 0 0 0-.24931-.18853.49439.49439 0 0 0-.1566-.02574zM1.15697 9.78795c-.30647.0012-.60009.12378-.81679.34048a1.16107 1.16107 0 0 0-.34017.81648 1.162 1.162 0 0 0 .33366.81957l10.84241 10.8421a1.15762 1.15762 0 0 0 .37677.25211 1.1583 1.1583 0 0 0 .44467.08838c.00084 0 .0016-.00031.0025-.00031.00073 0 .0014.00031.0022.00031a1.15827 1.15827 0 0 0 .44467-.08838 1.15731 1.15731 0 0 0 .37677-.2521l10.84236-10.8421a1.16272 1.16272 0 0 0 .33397-.81958c-.0013-.30647-.12376-.59976-.34048-.81648a1.1616 1.1616 0 0 0-.81679-.34048 1.16114 1.16114 0 0 0-.81926.33366l-5.4012 5.4009c-.0078.0074-.01718.01255-.02482.02015L12 20.14011l-4.59776-4.59745c-.0074-.0074-.01659-.01238-.02419-.01954l-5.4015-5.40151a1.162 1.162 0 0 0-.81958-.33366Z"/></svg>
</svg>